<svg width="64" height="64" viewBox="0 0 64 64" fill="none" xmlns="http://www.w3.org/2000/svg"><path d="M58 54h-2v2h2v-2Zm2-2h-2v2h2v-2Z" fill="#07090A"/><path d="M34 48h-6v2h8v-8h-2v6Zm0-34v20h-6v2h8V14h-2Z" fill="#EEEFF1"/><path d="M28 42v6h6v-6h-6Zm0-28v20h6V14h-6Z" fill="#fff"/><path d="M38 50h-2v2h2v-2Zm-10 0h-2v2h2v-2Zm12-8h-2v8h2v-8Zm-2-2h-2v2h2v-2Zm-10-2v2h8v-2h-8Zm10-2h-2v2h2v-2Zm-10 0h-2v2h2v-2Zm12-22h-2v22h2V14Zm-2-2h-2v2h2v-2Z" fill="#CC972B"/><path d="M56 10h-2v42h-2v2H36v-2h-8v2H12v-2h-2v2H8v2h2v2h44v-2h2v-2h2V10h-2Z" fill="#CC972B"/><path d="M52 12v-2H36v2h2v2h2v22h-2v2h-2v2h2v2h2v8h-2v2h-2v2h16v-2h2V12h-2Zm-28-2H12v2h-2v40h2v2h16v-2h-2v-2h-2v-8h2v-2h2v-2h-2v-2h-2V14h2v-2h2v-2h-4Z" fill="#F3B532"/><path d="M24 50h2v-8h-2v8Zm4-10h-2v2h2v-2Zm-4-4h2V14h-2v22Zm4-24h-2v2h2v-2Z" fill="#FDC76E"/><path d="M54 8V6H10v2H8v2H6v44h4V12h2v-2h16v2h8v-2h16v2h2v-2h2V8h-2Z" fill="#FDC76E"/><path d="M12 60h42v-2H10v2h2Zm44-4h-2v2h2v-2Zm-46 0H8v2h2v-2Zm-2-2H6v2h2v-2Zm28-2v-2h-8v2h8Zm-8-10h-2v8h2v-8Zm8 8h2v-8h-2v8Zm0-8v-2h-8v2h8Zm-8-6v2h8v-2h-8Zm10-22h-2v22h2V14Zm-10 0h-2v22h2V14Zm8 0v-2h-8v2h8Zm22-4v42h2V10h-2ZM4 12v42h2V10H4v2Zm54-4h-2v2h2V8ZM8 8H6v2h2V8Zm48-2h-2v2h2V6ZM10 6H8v2h2V6Zm42-2H10v2h44V4h-2Z" fill="#070909"/></svg>